<?xml version="1.0" standalone="no"?>
<!DOCTYPE svg PUBLIC "-//W3C//DTD SVG 20010904//EN"
 "http://www.w3.org/TR/2001/REC-SVG-20010904/DTD/svg10.dtd">
<svg version="1.0" xmlns="http://www.w3.org/2000/svg"
 width="146.000000pt" height="140.000000pt" viewBox="0 0 146.000000 140.000000"
 preserveAspectRatio="xMidYMid meet">
<metadata>
Created by potrace 1.15, written by Peter Selinger 2001-2017
</metadata>
<g transform="translate(0.000000,140.000000) scale(0.100000,-0.100000)"
fill="#fff" stroke="none">
<path d="M795 1271 c-62 -18 -105 -20 -362 -20 l-293 -1 0 -561 0 -560 513 4
c469 3 518 5 587 23 l75 19 5 180 c3 99 3 237 1 308 l-4 127 -228 0 -229 0 0
-90 0 -90 123 0 122 0 3 -142 c2 -106 -1 -143 -10 -150 -27 -17 -213 -9 -281
12 -111 35 -200 134 -223 250 l-6 30 106 0 106 0 0 90 0 90 -105 0 -105 0 6
28 c10 42 52 124 78 154 13 14 45 42 71 62 37 29 55 36 91 36 32 0 44 4 44 15
0 8 14 17 36 21 53 10 252 -2 312 -18 l52 -15 0 93 0 92 -47 12 c-27 7 -120
14 -208 16 -136 3 -171 1 -230 -15z m75 -91 l0 -70 -36 -15 c-27 -11 -74 -15
-183 -15 l-146 1 55 50 c80 73 177 119 251 119 l59 0 0 -70z m-295 -475 l0
-85 -102 0 -103 0 0 78 c0 43 3 82 7 85 3 4 50 7 103 7 l96 0 -1 -85z m325
-486 l0 -82 -60 7 c-103 12 -231 65 -300 125 l-35 30 198 1 197 0 0 -81z"/>
</g>
</svg>
