<svg xmlns="http://www.w3.org/2000/svg" viewBox="0 0 3630.15 1638.93"><defs><style>.cls-1{isolation:isolate;}.cls-13,.cls-15,.cls-2{fill:#070606;}.cls-3{fill:#beb9b0;}.cls-4{fill:#ebeae6;}.cls-5{fill:#0f0d0d;}.cls-6{fill:#d2268f;}.cls-7{fill:#fff;}.cls-8{fill:#556eb1;}.cls-9{fill:#e8e7e1;}.cls-10{fill:#d4d1ca;}.cls-11{fill:#ffc81a;}.cls-12{opacity:0.03;}.cls-13{opacity:0.2;}.cls-14{mix-blend-mode:screen;}.cls-15{opacity:0.15;}.cls-16{fill:#fed02b;}</style></defs><title>Asset 2smsBack</title><g class="cls-1"><g id="Layer_2" data-name="Layer 2"><g id="Layer_3" data-name="Layer 3"><g id="laptop"><rect class="cls-2" x="196.04" y="306.83" width="1884.94" height="1275.85" rx="64" ry="64"/><path class="cls-3" d="M.13,1615.6s-5,23.33,149.28,23.33H2201s79.68.61,93.2-22.85v-29.77H0Z"/><rect class="cls-4" x="0.49" y="1571.12" width="2294.14" height="44.95"/><rect class="cls-5" x="251.18" y="365.75" width="1774.65" height="1158.74"/><path class="cls-3" d="M1352.38,1582.36a11.24,11.24,0,0,1-11.24,11.24H954a11.24,11.24,0,0,1-11.24-11.24h0A11.24,11.24,0,0,1,954,1571.12h387.17a11.24,11.24,0,0,1,11.24,11.24Z"/></g><g id="program_code" data-name="program code"><rect class="cls-6" x="311.54" y="418.08" width="462.17" height="13.5"/><rect class="cls-7" x="311.54" y="457.75" width="316.41" height="13.5"/><rect class="cls-7" x="643.41" y="457.75" width="316.41" height="13.5"/><rect class="cls-7" x="602.24" y="503.13" width="243.97" height="10.41"/><rect class="cls-7" x="311.54" y="501.59" width="265.25" height="13.5"/><rect class="cls-7" x="870.2" y="502.81" width="316.41" height="13.5"/><rect class="cls-7" x="311.54" y="547.98" width="398.87" height="13.5"/><rect class="cls-8" x="754.04" y="547.98" width="321.83" height="13.5"/><rect class="cls-7" x="311.54" y="587.65" width="316.41" height="13.5"/><rect class="cls-7" x="643.41" y="587.65" width="316.41" height="13.5"/><rect class="cls-7" x="311.54" y="631.49" width="199.43" height="13.5"/><rect class="cls-6" x="311.54" y="769.24" width="398.87" height="13.5"/><rect class="cls-8" x="311.54" y="808.91" width="316.41" height="13.5"/><rect class="cls-7" x="643.41" y="808.91" width="316.41" height="13.5"/><rect class="cls-7" x="975.29" y="808.91" width="139.22" height="13.5"/><rect class="cls-7" x="311.54" y="852.74" width="132.62" height="13.5"/><rect class="cls-7" x="466.41" y="852.74" width="132.62" height="13.5"/><rect class="cls-7" x="621.29" y="852.74" width="132.62" height="13.5"/><rect class="cls-7" x="311.54" y="893.77" width="462.17" height="13.5"/><rect class="cls-8" x="311.54" y="933.44" width="316.41" height="13.5"/><rect class="cls-6" x="643.41" y="933.44" width="316.41" height="13.5"/><rect class="cls-7" x="602.24" y="978.82" width="243.97" height="10.41"/><rect class="cls-7" x="311.54" y="977.28" width="265.25" height="13.5"/><rect class="cls-7" x="870.2" y="978.5" width="316.41" height="13.5"/><rect class="cls-7" x="311.54" y="1023.67" width="398.87" height="13.5"/><rect class="cls-8" x="754.04" y="1023.67" width="321.83" height="13.5"/><rect class="cls-7" x="311.54" y="1063.35" width="316.41" height="13.5"/><rect class="cls-7" x="643.41" y="1063.35" width="316.41" height="13.5"/><rect class="cls-7" x="311.54" y="1107.18" width="199.43" height="13.5"/><rect class="cls-7" x="311.54" y="1244.92" width="398.87" height="13.5"/><rect class="cls-8" x="311.54" y="1284.59" width="316.41" height="13.5"/><rect class="cls-7" x="643.41" y="1284.59" width="316.41" height="13.5"/><rect class="cls-7" x="975.29" y="1284.59" width="139.22" height="13.5"/><rect class="cls-7" x="311.54" y="1328.43" width="132.62" height="13.49"/><rect class="cls-6" x="466.41" y="1328.43" width="132.62" height="13.49"/><rect class="cls-7" x="621.29" y="1328.43" width="132.62" height="13.49"/><rect class="cls-7" x="311.54" y="1372.14" width="398.87" height="13.5"/><rect class="cls-7" x="311.54" y="1411.81" width="316.41" height="13.5"/><rect class="cls-7" x="643.41" y="1411.81" width="316.41" height="13.5"/><rect class="cls-6" x="975.29" y="1411.81" width="139.22" height="13.5"/><rect class="cls-7" x="311.54" y="1455.65" width="132.62" height="13.49"/></g><path class="cls-9" d="M2793.46,1601.53c0,17.52-13.54,31.71-30.24,31.71H2391.84c-16.7,0-30.24-14.2-30.24-31.71V880.93c0-17.51,13.54-31.71,30.24-31.71h371.38c16.7,0,30.24,14.2,30.24,31.71Z"/><rect class="cls-5" x="2380.67" y="914.26" width="390.61" height="603.76"/><path class="cls-10" d="M2622.34,1574.24a19.67,19.67,0,0,1-19.67,19.67h-56.2a19.67,19.67,0,0,1-19.67-19.67h0a19.67,19.67,0,0,1,19.67-19.67h56.2a19.67,19.67,0,0,1,19.67,19.67Z"/><circle class="cls-10" cx="2569.48" cy="884.34" r="15.46"/><g id="program_code-2" data-name="program code"><rect class="cls-6" x="2414.11" y="976" width="146.39" height="4.28"/><rect class="cls-7" x="2414.11" y="988.56" width="100.22" height="4.28"/><rect class="cls-7" x="2519.23" y="988.56" width="100.22" height="4.28"/><rect class="cls-7" x="2506.19" y="1002.94" width="77.28" height="3.3"/><rect class="cls-7" x="2414.11" y="1002.45" width="84.02" height="4.28"/><rect class="cls-7" x="2591.06" y="1002.84" width="100.22" height="4.28"/><rect class="cls-7" x="2414.11" y="1017.15" width="126.34" height="4.28"/><rect class="cls-8" x="2554.27" y="1017.15" width="101.94" height="4.28"/><rect class="cls-7" x="2414.11" y="1029.71" width="100.22" height="4.28"/><rect class="cls-7" x="2519.23" y="1029.71" width="100.22" height="4.28"/><rect class="cls-7" x="2414.11" y="1043.59" width="63.17" height="4.28"/><rect class="cls-6" x="2414.11" y="1087.23" width="126.34" height="4.28"/><rect class="cls-8" x="2414.11" y="1099.79" width="100.22" height="4.28"/><rect class="cls-7" x="2519.23" y="1099.79" width="100.22" height="4.28"/><rect class="cls-7" x="2624.35" y="1099.79" width="44.1" height="4.28"/><rect class="cls-7" x="2414.11" y="1113.67" width="42.01" height="4.28"/><rect class="cls-7" x="2463.17" y="1113.67" width="42.01" height="4.28"/><rect class="cls-7" x="2512.22" y="1113.67" width="42.01" height="4.28"/><rect class="cls-7" x="2414.11" y="1126.67" width="146.39" height="4.28"/><rect class="cls-8" x="2414.11" y="1139.24" width="100.22" height="4.28"/><rect class="cls-6" x="2519.23" y="1139.24" width="100.22" height="4.28"/><rect class="cls-7" x="2506.19" y="1153.61" width="77.28" height="3.3"/><rect class="cls-7" x="2414.11" y="1153.12" width="84.02" height="4.28"/><rect class="cls-7" x="2591.06" y="1153.51" width="100.22" height="4.28"/><rect class="cls-7" x="2414.11" y="1167.82" width="126.34" height="4.28"/><rect class="cls-8" x="2554.27" y="1167.82" width="101.94" height="4.28"/><rect class="cls-7" x="2414.11" y="1180.38" width="100.22" height="4.28"/><rect class="cls-7" x="2519.23" y="1180.38" width="100.22" height="4.28"/><rect class="cls-7" x="2414.11" y="1194.27" width="63.17" height="4.28"/><rect class="cls-7" x="2414.11" y="1237.9" width="126.34" height="4.28"/><rect class="cls-8" x="2414.11" y="1250.46" width="100.22" height="4.28"/><rect class="cls-7" x="2519.23" y="1250.46" width="100.22" height="4.28"/><rect class="cls-7" x="2624.35" y="1250.46" width="44.1" height="4.28"/><rect class="cls-7" x="2414.11" y="1264.35" width="42.01" height="4.27"/><rect class="cls-6" x="2463.17" y="1264.35" width="42.01" height="4.27"/><rect class="cls-7" x="2512.22" y="1264.35" width="42.01" height="4.27"/><rect class="cls-7" x="2414.11" y="1278.19" width="126.34" height="4.28"/><rect class="cls-7" x="2414.11" y="1290.76" width="100.22" height="4.28"/><rect class="cls-7" x="2519.23" y="1290.76" width="100.22" height="4.28"/><rect class="cls-6" x="2624.35" y="1290.76" width="44.1" height="4.28"/><rect class="cls-7" x="2414.11" y="1304.64" width="42.01" height="4.27"/></g><g id="program_code-3" data-name="program code"><rect class="cls-7" x="2413.28" y="1349.51" width="126.34" height="4.28"/><rect class="cls-8" x="2413.28" y="1362.08" width="100.22" height="4.28"/><rect class="cls-7" x="2518.4" y="1362.08" width="100.22" height="4.28"/><rect class="cls-7" x="2623.52" y="1362.08" width="44.1" height="4.28"/><rect class="cls-7" x="2413.28" y="1375.96" width="42.01" height="4.27"/><rect class="cls-6" x="2462.34" y="1375.96" width="42.01" height="4.27"/><rect class="cls-7" x="2511.39" y="1375.96" width="42.01" height="4.27"/><rect class="cls-7" x="2413.28" y="1389.81" width="126.34" height="4.28"/><rect class="cls-7" x="2413.28" y="1402.37" width="100.22" height="4.28"/><rect class="cls-7" x="2518.4" y="1402.37" width="100.22" height="4.28"/><rect class="cls-6" x="2623.52" y="1402.37" width="44.1" height="4.28"/><rect class="cls-7" x="2413.28" y="1416.26" width="42.01" height="4.27"/></g><g id="envelope"><g id="envelope-2" data-name="envelope"><path class="cls-11" d="M2231.66,933.89a1224.64,1224.64,0,0,0-383.29,163.33L1714.62,891.11A1466.65,1466.65,0,0,1,2058.81,727.2q57.71-18.7,116.83-32.54Z"/><g class="cls-12"><path class="cls-2" d="M1848.38,1097.22a1206.89,1206.89,0,0,1,136.41-211.28,1207,1207,0,0,1,246.88,48A1224.64,1224.64,0,0,0,1848.38,1097.22Z"/></g><path class="cls-13" d="M1714.62,891.11a1285.65,1285.65,0,0,1,279.3,15.67,1285.48,1285.48,0,0,1,181.71-212.12q-59,13.92-116.83,32.54A1466.65,1466.65,0,0,0,1714.62,891.11Z"/><g class="cls-14"><path class="cls-11" d="M1714.62,891.11a1310,1310,0,0,1,270.16-5.17,1310,1310,0,0,1,190.85-191.28q-59,13.92-116.83,32.54A1466.65,1466.65,0,0,0,1714.62,891.11Z"/></g></g><g id="envelope-3" data-name="envelope"><path class="cls-11" d="M3508.9,1000.14,3018.65,878.37,3135.41,551.8l456.32,216.67C3506.67,812.61,3471.11,912.08,3508.9,1000.14Z"/><g class="cls-12"><path class="cls-2" d="M3018.65,878.37c90-30.39,179.56-63.12,271.57-87.06,60.71,82.38,132.08,153.71,218.68,208.83Z"/></g><path class="cls-13" d="M3135.41,551.8c47.15,89.57,90.36,182,146.29,266.57,100.14-37.86,202.62-58.53,310-49.89Z"/><g class="cls-14"><path class="cls-11" d="M3135.41,551.8c50.33,80.56,98.83,162.66,154.8,239.51,99.18-25.21,199.59-35.12,301.52-22.83Z"/></g></g><g id="envelope-4" data-name="envelope"><path class="cls-11" d="M2695.95,462.63a1138.44,1138.44,0,0,1-467.57,149.57l-20.62-229.34a907.49,907.49,0,0,0,371.88-119Z"/><g class="cls-12"><path class="cls-2" d="M2228.38,612.19c75.53-43.9,145.19-96.82,207-158.63,86.18,14.48,173.62,17.14,260.6,9.06A1138.44,1138.44,0,0,1,2228.38,612.19Z"/></g><path class="cls-13" d="M2207.76,382.86c73.53,41.22,152.38,71.3,234.31,90.94,55.15-63.54,101.74-133.74,137.57-209.9A907.49,907.49,0,0,1,2207.76,382.86Z"/><g class="cls-14"><path class="cls-11" d="M2207.76,382.86c72.46,33.64,148.91,57,227.59,70.7,56.11-56.83,104.81-120.21,144.3-189.67A907.49,907.49,0,0,1,2207.76,382.86Z"/></g></g><g id="envelope-5" data-name="envelope"><path class="cls-11" d="M3630.15,485.58c-220.41-49.51-449-32.88-661,44.25l-64.53-261.46c200.64-92.3,405-176.14,605.71-268.36Z"/><g class="cls-12"><path class="cls-2" d="M2969.14,529.82c90.25-80.66,187-153.52,278.54-232.69,140.85,33.72,268.66,99.28,382.47,188.44C3409.74,436.06,3181.19,452.7,2969.14,529.82Z"/></g><path class="cls-13" d="M2904.61,268.36c119.24,5.82,237.17,21.26,350.89,58.87,100.79-97,187.6-204.18,254.81-327.23C3309.65,92.22,3105.25,176.06,2904.61,268.36Z"/><g class="cls-14"><path class="cls-11" d="M2904.61,268.36c115.31-2.6,230.32,2.9,343.07,28.77C3348.3,209.42,3438.16,112.7,3510.32,0,3309.65,92.22,3105.25,176.06,2904.61,268.36Z"/></g></g><g id="envelope-6" data-name="envelope"><polygon class="cls-11" points="1540.91 1255.78 809.17 1255.78 809.17 824.25 1175.04 575.49 1540.91 824.25 1540.91 1255.78"/><polygon class="cls-13" points="809.17 824.25 1175.04 1040.02 1540.91 824.25 809.17 824.25"/><polygon class="cls-15" points="809.17 824.25 1175.04 575.49 1540.91 824.25 809.17 824.25"/><path class="cls-16" d="M809.17,1255.78S1062.86,996,1175,996s365.87,259.77,365.87,259.77Z"/></g><g id="envelope-7" data-name="envelope"><path class="cls-11" d="M2883.29,899.78l-361.61,6.31,20.46-247.46,355.67,65.6C2847.11,770.47,2840.88,845.84,2883.29,899.78Z"/><g class="cls-12"><path class="cls-2" d="M2521.67,906.09c56.64-37.64,112.55-76.83,171.77-110.38,57.21,45.77,119.75,81.93,189.84,104.07Z"/></g><path class="cls-13" d="M2542.13,658.62c49.16,53.25,96.12,109.19,150.43,157.38,62.28-44.68,129.35-77.91,205.24-91.77Z"/><g class="cls-14"><path class="cls-11" d="M2542.13,658.62c49.69,46.43,98.41,94.26,151.32,137.09,64-35.76,131.58-61.15,204.35-71.48Z"/></g></g></g></g></g></g></svg>